<?xml version="1.0" encoding="utf-8"?>
<svg viewBox="225.904 240.387 30.771 37.277" width="30.771" height="37.277" xmlns="http://www.w3.org/2000/svg">
  <path d="M98,4.71H89.55a3.1,3.1,0,0,0-3.09,3.1,3,3,0,0,0,2.91,3.09h8.69Z" fill="#073042" id="path4" transform="matrix(1, 0, 0, 1, 139.445709, 240.386963)"/>
  <path d="M117.15,32.26H89.54a3.1,3.1,0,0,1-3.08-3.09V7.79a3.1,3.1,0,0,0,3.08,3.12h23.11s4.5-.39,4.5,3Z" fill="#4285f4" id="path6" transform="matrix(1, 0, 0, 1, 139.445709, 240.386963)"/>
  <path d="M104.27,21.31a2.78,2.78,0,0,0-1.59-5h.09a2,2,0,0,1,.49,0V14.59a.56.56,0,0,0-.26-.49.54.54,0,0,0-.81.49v1.75a2.78,2.78,0,0,0-2.32,3.19,2.75,2.75,0,0,0,1.1,1.81L95.88,32.22H99.2l2.35-5a1.21,1.21,0,0,1,2.19,0l2.42,5h3.36Zm-1.7-.49a1.72,1.72,0,0,1-1.71-1.73,1.72,1.72,0,0,1,2.91-1.22,1.72,1.72,0,0,1-1.2,2.95Z" fill="#3870b2" id="path10" transform="matrix(1, 0, 0, 1, 139.445709, 240.386963)"/>
  <path d="M96.15,6.23H108V8.4H96.15Z" fill="#fff" id="path12" transform="matrix(1, 0, 0, 1, 139.445709, 240.386963)"/>
  <path d="M101.65,17.39a1.71,1.71,0,1,1-1.73,1.7,1.75,1.75,0,0,1,.51-1.2A1.72,1.72,0,0,1,101.65,17.39Zm.68-1v-1.8a.56.56,0,0,0-.26-.49.54.54,0,0,0-.81.49v1.75a2.78,2.78,0,0,0-2.32,3.19,2.75,2.75,0,0,0,1.1,1.81L93.65,35.09a1.5,1.5,0,0,0,.11,1.53,1.51,1.51,0,0,0,2.63-.25l4.26-9.15a1.21,1.21,0,0,1,2.19,0l4.37,9.1A1.51,1.51,0,0,0,109.93,35l-6.58-13.69a2.81,2.81,0,0,0-1-4.91" fill="#073042" id="path14" transform="matrix(1, 0, 0, 1, 139.445709, 240.386963)"/>
  <path class="cls-5" d="M106.25,8.14a.8.8,0,0,1-.82-.78.77.77,0,0,1,.24-.59.81.81,0,0,1,1.14,0,.84.84,0,0,1,.24.56.8.8,0,0,1-.8.8h0m-8.89,0a.8.8,0,0,1-.81-.79.78.78,0,0,1,.24-.58.8.8,0,0,1,1.14-.11A.82.82,0,0,1,98,7.8l-.11.11a.81.81,0,0,1-.57.23m9.18-4.85,1.6-2.78A.34.34,0,0,0,108,.07a.32.32,0,0,0-.39.1L105.94,3a10.08,10.08,0,0,0-8.26,0L96.05.17A.34.34,0,0,0,95.76,0a.37.37,0,0,0-.29.17.34.34,0,0,0,0,.34l1.61,2.78a9.52,9.52,0,0,0-4.92,7.61h19.3a9.52,9.52,0,0,0-4.92-7.61" fill="#3ddc84" id="path16" transform="matrix(1, 0, 0, 1, 139.445709, 240.386963)"/>
  <path d="M114.38,16.83h-1.27A.16.16,0,0,0,113,17h0V37a.16.16,0,0,0,.15.16h1.31a2.78,2.78,0,0,0,2.77-2.78V14.05a2.78,2.78,0,0,1-2.78,2.78Z" fill="#073042" id="path18" transform="matrix(1, 0, 0, 1, 139.445709, 240.386963)"/>
</svg>