<?xml version="1.0" encoding="utf-8"?>
<svg viewBox="186.16 187.488 56.911 58.808" width="56.911" height="58.808" xmlns="http://www.w3.org/2000/svg">
  <clipPath id="b">
    <path d="M0 0h56.911v58.809H0z" transform="matrix(1, 0, 0, 1, 0, 0)" overflow="visible"/>
  </clipPath>
  <path d="M56.911 22.657l-19.297-3.324C35.958 15.828 30.31 3.885 30.31 3.885L28.465 0l-9.156 19.333L0 22.655l13.79 14.949-3.088 21.204 17.763-9.752 17.764 9.747-3.106-21.199c2.459-2.67 10.837-11.745 11.248-12.191l2.54-2.756zM40.649 36.644l2.623 17.7-14.807-8.127-14.824 8.134 2.626-17.707L4.728 24.147l16.134-2.785 7.591-16.035 7.581 16.035 16.145 2.785-11.53 12.497z" clip-path="url(#b)" transform="matrix(1, 0, 0, 1, 186.160156, 187.487946)" style="fill: rgb(0, 122, 195);"/>
  <path clip-path="url(#b)" d="M17.587 39.907l5.355 7.285 2.297-1.267-8.891-18.42L28.056 44.38l.402-.221 4.088 2.247-9.002-19.827 15.329 23.305 2.08 1.136-.333-2.253-9.887-23.114 8.495 13.566-.463-3.158 2.599-2.812-3.436-8.514 4.443 7.429 6.3-6.824-13.837-2.379-6.376-13.477-6.381 13.477-13.83 2.379 9.903 10.721zm-.563 3.851l-1.058 7.263 3.738-2.05z" transform="matrix(1, 0, 0, 1, 186.160156, 187.487946)" style="fill: rgb(0, 122, 195);"/>
</svg>