<?xml version="1.0" encoding="utf-8"?>
<svg viewBox="-4626.273 -6490.412 9698.875 13396.96" width="9698.875" height="13396.96" xmlns="http://www.w3.org/2000/svg">
  <path style="fill:#5b5b5b" id="path13" d="m 10860.04,13907.49 h -194.85 C 9875.64,11283.98 9415.21,9023.54 9311.5,7214.7 9161.78,4603.19 9695.41,2932.77 10550.08,2469.72 c 79.56,-43.07 168.46,-76.75 309.96,-78.99 141.46,2.24 230.36,35.92 309.91,78.99 854.81,463.15 1388.49,2134.17 1238.49,4746.71 -103.85,1808.55 -564.28,4068.39 -1353.55,6691.06 z M 10135.43,2380.54 c 0,0 -2324.02,879.62 -2156.73,4262.73 167.29,3383.07 2478.84,7262.4 2478.84,7262.4 C 9034.48,12643.08 6926.71,8709.75 6886.06,6395.16 6917.41,3952.77 8526.07,2964.35 8981.27,2747.4 c 455.24,-216.95 937.49,-357.65 1154.16,-366.86 z M 8105.86,2975 c 0,0 -2496.4,1028.31 -2002.71,3997.01 493.69,2968.7 3120.81,6136.83 3901.01,6809.77 279.78,256.52 -3224.05,-3654.39 -3563.77,-7089.6 C 6277.78,5395.21 6656.78,3957.53 8105.86,2975 Z m 5564.19,0 c 0,0 2496.4,1028.31 2002.7,3997.01 -493.69,2968.7 -3120.85,6136.83 -3901.05,6809.77 -279.69,256.52 3224.09,-3654.39 3563.81,-7089.6 C 15498.13,5395.21 15119.12,3957.53 13670.05,2975 Z m -2040.6,-594.46 c 0,0 2324.02,879.62 2156.73,4262.73 -167.29,3383.07 -2478.88,7262.4 -2478.88,7262.4 1423.1,-1262.59 3530.83,-5195.92 3571.47,-7510.51 -31.3,-2442.39 -1639.96,-3430.81 -2095.2,-3647.76 -455.2,-216.95 -937.45,-357.65 -1154.12,-366.86 z" class="fil1" transform="matrix(1, 0, 0, 1, -10664.787109, -8870.952148)"/>
  <polygon style="fill:#5b5b5b" id="polygon15" points="11855.47,14574.79 9864.57,14574.79 10131.91,15777.5 11584.59,15777.5 " class="fil1" transform="matrix(1, 0, 0, 1, -10664.787109, -8870.952148)"/>
</svg>