<?xml version="1.0" encoding="utf-8"?>
<svg viewBox="157.571 39.682 223.242 221.223" width="223.242" height="221.223" xmlns="http://www.w3.org/2000/svg">
  <g id="layer2" transform="matrix(1, 0, 0, 1, 65.140961, -11.69683)">
    <rect style="opacity:1;vector-effect:none;fill:#ffffff;fill-opacity:1;stroke:none;stroke-width:5;stroke-linecap:butt;stroke-linejoin:miter;stroke-miterlimit:4;stroke-dasharray:none;stroke-dashoffset:0;stroke-opacity:1;marker:none;paint-order:normal" id="rect5099" width="222.7383" height="221.22266" x="92.933594" y="51.378906" rx="51.972347" ry="51.972347"/>
    <path style="opacity:1;vector-effect:none;fill:#8d9fb4;fill-opacity:1;stroke:none;stroke-width:10;stroke-linecap:round;stroke-linejoin:miter;stroke-miterlimit:4;stroke-dasharray:none;stroke-dashoffset:0;stroke-opacity:0.95686275;marker:none;paint-order:normal" d="m 144.95703,51.378906 c -29.10048,0 -52.52734,23.426867 -52.52734,52.527344 0,60.01103 0.5039,168.69531 0.5039,168.69531 h 170.21094 c 29.10047,0 52.52735,-23.42687 52.52735,-52.52734 V 51.378906 Z m -1.6543,34.119141 c 8.26529,0 15.07422,6.806995 15.07422,15.072263 0,6.42993 -4.12815,11.96082 -9.84961,14.10742 v 95.39258 l 51.15235,-50.98242 v -44.20117 c -6.01564,-1.983 -10.41407,-7.6746 -10.41407,-14.31641 2e-5,-8.265267 6.80699,-15.072263 15.07227,-15.072263 8.26528,0 15.07422,6.806995 15.07422,15.072263 0,6.38613 -4.07172,11.88658 -9.73242,14.06446 v 34.48632 l 42.25195,-42.11132 c -0.9396,-1.95946 -1.48242,-4.13861 -1.48242,-6.43946 0,-8.265268 6.80698,-15.072263 15.07226,-15.072263 8.26529,0 15.07422,6.806995 15.07422,15.072263 0,8.26528 -6.80893,15.07227 -15.07422,15.07227 -2.34312,0 -4.56,-0.56291 -6.54687,-1.53516 l -41.99414,41.85547 h 34.92383 c 2.1784,-5.66017 7.68028,-9.73047 14.0664,-9.73047 8.26528,0 15.07227,6.80699 15.07227,15.07227 0,8.26527 -6.80699,15.07226 -15.07227,15.07226 -6.64181,0 -12.33486,-4.39843 -14.31836,-10.41406 h -44.70507 l -51.32032,51.15039 h 96.06836 c 2.01901,-5.9546 7.67739,-10.29687 14.27539,-10.29687 8.26528,0 15.07227,6.80699 15.07227,15.07226 0,8.26528 -6.80699,15.07422 -15.07227,15.07422 -6.42993,0 -11.96225,-4.12815 -14.10937,-9.84961 H 138.52734 V 114.84375 c -5.9546,-2.01851 -10.29687,-7.67543 -10.29687,-14.27344 0,-8.265267 6.80698,-15.072263 15.07226,-15.072263 z m 0,10 c -2.86106,0 -5.07226,2.211585 -5.07226,5.072263 0,2.86069 2.2112,5.07227 5.07226,5.07227 2.86107,0 5.07422,-2.21158 5.07422,-5.07227 0,-2.860677 -2.21315,-5.072263 -5.07422,-5.072263 z m 61.03516,0 c -2.86107,0 -5.07227,2.211585 -5.07227,5.072263 10e-6,2.86069 2.2112,5.07227 5.07227,5.07227 2.86107,0 5.07422,-2.21158 5.07422,-5.07227 0,-2.860677 -2.21315,-5.072263 -5.07422,-5.072263 z m 61.18359,0 c -2.86106,0 -5.07226,2.211585 -5.07226,5.072263 0,2.86069 2.2112,5.07227 5.07226,5.07227 2.86107,0 5.07422,-2.21158 5.07422,-5.07227 0,-2.860677 -2.21315,-5.072263 -5.07422,-5.072263 z m 0.44922,60.734373 c -2.86107,0 -5.07422,2.21158 -5.07422,5.07227 0,2.86068 2.21315,5.07226 5.07422,5.07226 2.86107,0 5.07227,-2.21158 5.07227,-5.07226 0,-2.86069 -2.2112,-5.07227 -5.07227,-5.07227 z m 0,60.58399 c -2.86107,0 -5.07422,2.21158 -5.07422,5.07226 0,2.86069 2.21315,5.07422 5.07422,5.07422 2.86107,0 5.07227,-2.21353 5.07227,-5.07422 0,-2.86068 -2.2112,-5.07226 -5.07227,-5.07226 z" id="path3225"/>
    <path style="opacity:1;fill:#436795;fill-opacity:1;stroke:none;stroke-width:1px;stroke-linecap:butt;stroke-linejoin:miter;stroke-opacity:1" d="m 315.67188,51.378906 -39.1836,38.917969 c 2.53501,2.701816 4.10742,6.315458 4.10742,10.273435 0,8.26528 -6.80893,15.07227 -15.07422,15.07227 -2.34312,0 -4.56,-0.56291 -6.54687,-1.53516 l -41.99414,41.85547 h 34.92383 c 2.1784,-5.66017 7.68028,-9.73047 14.0664,-9.73047 8.26528,0 15.07227,6.80699 15.07227,15.07227 0,8.26527 -6.80699,15.07226 -15.07227,15.07226 -6.64181,0 -12.33486,-4.39843 -14.31836,-10.41406 h -44.70507 l -51.32032,51.15039 h 96.06836 c 2.01901,-5.9546 7.67739,-10.29687 14.27539,-10.29687 8.26528,0 15.07227,6.80699 15.07227,15.07226 0,8.26528 -6.80699,15.07422 -15.07227,15.07422 -6.42993,0 -11.96225,-4.12815 -14.10937,-9.84961 H 138.73438 l -45.80079,45.48828 h 170.21094 c 29.10047,0 52.52734,-23.42687 52.52735,-52.52734 z m -46.25,45.935547 -7.18165,7.132817 c 0.87831,0.73859 2.00772,1.19531 3.28125,1.19531 2.86107,0 5.07422,-2.21158 5.07422,-5.07227 0,-1.260805 -0.44802,-2.380992 -1.17382,-3.255857 z m -3.45118,58.917967 c -2.86107,0 -5.07422,2.21158 -5.07422,5.07227 0,2.86068 2.21315,5.07226 5.07422,5.07226 2.86107,0 5.07227,-2.21158 5.07227,-5.07226 0,-2.86069 -2.2112,-5.07227 -5.07227,-5.07227 z m 0,60.58399 c -2.86107,0 -5.07422,2.21158 -5.07422,5.07226 0,2.86069 2.21315,5.07422 5.07422,5.07422 2.86107,0 5.07227,-2.21353 5.07227,-5.07422 0,-2.86068 -2.2112,-5.07226 -5.07227,-5.07226 z" id="path3227"/>
  </g>
</svg>