<?xml version="1.0" encoding="utf-8"?>
<svg viewBox="83.963 245.191 155.42 154.618" width="155.42" height="154.618" xmlns="http://www.w3.org/2000/svg">
  <g transform="matrix(1, 0, 0, 1, 225.201172, 146.680832)">
    <g transform="matrix(.26767 0 0 .26629 -388.29 119.38)">
      <g transform="matrix(2.7014 0 0 2.7014 845.47 -201.36)">
        <path d="m136.17 45.527c-59.27 0-107.48 48.212-107.48 107.47 0 59.265 48.209 107.47 107.48 107.47 59.252 0 107.46-48.209 107.46-107.47 0-59.261-48.213-107.47-107.46-107.47z" fill="#3c6eb4"/>
        <path d="m136.17 55.389c-17.283 0-31.941 27.645-37.235 66.069-0.169 1.236-0.333 2.487-0.478 3.746-0.723 6.047-1.213 12.335-1.458 18.808-0.117 2.962-0.175 5.956-0.175 8.988 0 3.029 0.058 6.029 0.175 8.985 0.245 6.472 0.735 12.764 1.458 18.811 8.104 1.049 16.769 1.761 25.807 2.099 3.907 0.146 7.872 0.233 11.907 0.233 4.023 0 8-0.088 11.895-0.233 9.049-0.338 17.708-1.05 25.819-2.099 0.892-0.114 1.77-0.239 2.659-0.368 33.754-4.74 57.235-15.232 57.235-27.428-1e-3 -53.912-43.706-97.611-97.609-97.611z" fill="#db3279"/>
        <path d="m176.54 125.57c-0.979-1.428-2.029-2.796-3.148-4.11-8.956-10.557-22.297-17.265-37.224-17.265-4.839 0-9.148 7.407-11.907 18.909-1.096 4.586-1.947 9.819-2.495 15.498-0.432 4.551-0.665 9.391-0.665 14.399s0.233 9.849 0.665 14.396c4.554 0.432 9.387 0.664 14.402 0.664 5.009 0 9.842-0.232 14.396-0.664 10.011-0.95 18.653-2.875 24.775-5.411 6.046-2.501 9.624-5.615 9.624-8.985-1e-3 -10.168-3.106-19.612-8.423-27.431z" fill="#fff"/>
      </g>
    </g>
  </g>
</svg>