<?xml version="1.0" encoding="utf-8"?>
<svg viewBox="133.423 42.119 80 98.452" width="80" height="98.452" xmlns="http://www.w3.org/2000/svg" xmlns:xlink="http://www.w3.org/1999/xlink">
  <defs>
    <linearGradient id="z" x1="121.30617" x2="121.30617" y1="976.37823" y2="992.4245" gradientTransform="matrix(1 0 0 1.00011 0 -.10551)" gradientUnits="userSpaceOnUse" xlink:href="#a"/>
    <linearGradient id="a">
      <stop offset="0" stop-color="#666"/>
      <stop offset="1" stop-color="#333"/>
    </linearGradient>
    <linearGradient id="a-1" x1="110.96875" x2="110.96875" y1="976.29968" y2="992.375" gradientTransform="matrix(1.00399 0 0 1.00959 -1.49914 -9.36636)" gradientUnits="userSpaceOnUse" xlink:href="#a"/>
    <linearGradient id="b-1" x1="294.3429" x2="294.41818" y1="256.58133" y2="243.13852" gradientTransform="matrix(7.979 0 0 8.01241 -2383.56 -3106.47)" gradientUnits="userSpaceOnUse" xlink:href="#b"/>
    <linearGradient id="b">
      <stop offset="0" stop-color="#b3b3b3"/>
      <stop offset="1" stop-color="#e6e6e6"/>
    </linearGradient>
    <linearGradient id="C" x1="209.0625" x2="209.0625" y1="-765.46082" y2="-781.62268" gradientTransform="matrix(4 0 0 4 -875 1971.91)" gradientUnits="userSpaceOnUse" xlink:href="#c"/>
    <linearGradient id="c">
      <stop offset="0" stop-color="#fff" stop-opacity=".588235"/>
      <stop offset="1" stop-color="#fff" stop-opacity=".862745"/>
    </linearGradient>
  </defs>
  <g fill="url(#y)" transform="matrix(6.15372, 0, 0, 6.151535, -549.639527, -5964.058348)">
    <path fill="url(#z)" d="M111 977.12331v14.50168c.00005.52364.22641.74996.74999.75001H123.25c.52358-.00005.74994-.22637.74999-.75001v-8.98088c.006-.26409-.0975-.52903-.28125-.71883l-5.27042-5.2707c-.18978-.18372-.45469-.2874-.71875-.28128h-5.97958c-.51898 0-.75228.43576-.74999.75001z" color="#000" font-family="Andale Mono" font-weight="400" overflow="visible" style="text-indent:0;text-align:start;line-height:normal;text-transform:none;marker:none"/>
    <path fill="url(#a-1)" d="M120.32938 976.3765c-.33282.10664-.44483.61349-.18825.85184l3.01199 3.02879c.27825.26531.83246.0383.84712-.34705v-3.02878c-.00003-.26431-.23916-.50477-.502-.5048h-3.01199c-.0519-.008-.105-.008-.15687 0z" color="#000" font-family="Andale Mono" font-weight="400" overflow="visible" style="text-indent:0;text-align:start;line-height:normal;text-transform:none;marker:none"/>
  </g>
  <path fill="url(#b-1)" d="M-44.99976-1160.577v116h91.99832v-72.8752l-.62496-.6248-41.74924-42-.49996-.5h-49.12416z" color="#000" font-family="Andale Mono" font-weight="400" overflow="visible" style="text-indent:0;text-align:start;line-height:normal;text-transform:none;marker:none" transform="matrix(0.76924, 0, 0, 0.76924, 172.652195, 939.531516)"/>
  <path fill="url(#C)" d="M-40.99984-1156.577H1.2338l41.7636 42v66h-83.99724v-108z" transform="matrix(0.76924, 0, 0, 0.76924, 172.652195, 939.531516)"/>
</svg>