<?xml version="1.0" encoding="utf-8"?>
<svg viewBox="-3.608 -63.714 412.961 413.02" width="412.961" height="413.02" xmlns="http://www.w3.org/2000/svg">
  <g id="#0068c8ff" transform="matrix(1, 0, 0, 1, -99.606819, -93.898186)">
    <path fill="#0068c8" opacity="1.00" d=" M 218.17 48.24 C 270.88 24.16 334.06 24.16 386.76 48.27 C 429.74 67.49 465.82 101.84 486.82 144.01 C 516.23 200.88 516.36 271.92 487.08 328.86 C 483.45 336.97 478.38 344.30 473.82 351.90 C 467.79 360.11 461.94 368.50 454.78 375.80 C 448.85 382.83 441.85 388.82 434.97 394.90 C 431.32 369.77 427.06 344.73 422.13 319.82 C 416.76 295.89 411.66 271.87 404.39 248.42 C 394.91 217.37 383.49 186.51 365.97 159.01 C 357.44 146.24 347.50 134.09 334.83 125.22 C 340.29 118.47 340.42 109.22 341.22 100.98 C 341.13 98.09 343.63 96.21 345.17 94.06 C 349.50 88.45 354.22 83.14 358.22 77.28 C 350.17 78.32 342.53 81.14 334.91 83.80 C 326.53 87.22 317.99 91.07 311.51 97.55 C 309.14 99.91 305.43 99.52 302.48 100.67 C 287.54 105.61 273.77 113.42 260.16 121.19 C 246.49 128.63 233.44 137.10 220.16 145.17 C 189.16 164.89 158.56 185.24 128.48 206.33 C 117.66 213.84 106.83 221.35 96.01 228.86 C 97.27 201.99 103.15 175.13 114.80 150.80 C 135.29 105.57 172.85 68.48 218.17 48.24 Z"/>
    <path fill="#0068c8" opacity="1.00" d=" M 285.47 207.64 C 288.92 204.64 292.63 201.66 297.07 200.32 C 300.86 199.76 304.68 200.75 308.40 201.38 C 319.93 204.27 329.15 212.46 337.29 220.73 C 350.16 234.71 360.27 250.96 369.40 267.55 C 381.90 289.99 391.75 313.74 401.59 337.43 C 409.34 357.49 416.88 377.64 423.54 398.10 C 424.27 399.14 424.23 402.42 426.09 401.61 L 426.79 401.42 C 412.22 412.57 395.97 421.43 379.07 428.52 C 330.87 447.94 275.30 448.10 226.99 428.98 C 203.35 419.39 181.20 405.86 162.59 388.35 C 158.69 384.73 154.43 381.37 151.33 376.99 C 152.79 378.45 154.25 379.91 155.69 381.39 C 187.24 337.07 218.32 292.41 250.68 248.67 C 261.53 234.40 272.34 219.94 285.47 207.64 Z"/>
    <path fill="#0068c8" opacity="1.00" d=" M 164.03 222.37 C 169.91 220.94 175.95 219.75 182.03 219.99 C 183.90 220.08 186.54 220.64 186.53 223.02 C 186.56 226.16 185.32 229.18 184.09 232.02 C 178.41 244.12 170.38 254.88 163.08 266.02 C 148.28 287.59 133.54 309.21 118.69 330.75 C 103.26 301.03 95.35 267.41 96.04 233.94 C 96.10 236.87 96.13 239.81 96.11 242.75 C 96.85 243.35 97.60 243.95 98.36 244.54 C 119.79 235.89 141.67 228.27 164.03 222.37 Z"/>
    <path fill="#0068c8" opacity="1.00" d=" M 206.74 245.67 C 210.70 242.50 214.45 237.56 220.06 237.99 C 217.24 246.49 212.10 253.96 207.75 261.72 C 186.93 297.55 164.76 332.57 143.37 368.06 C 144.85 369.69 146.30 371.34 147.72 373.03 C 142.57 368.46 139.13 362.39 134.85 357.06 C 130.88 352.27 128.09 346.68 124.60 341.55 C 137.42 325.68 150.02 309.63 163.20 294.06 C 177.12 277.42 190.81 260.46 206.74 245.67 Z"/>
  </g>
  <g id="#ffffffff" transform="matrix(1, 0, 0, 1, -99.606819, -93.898186)">
    <path fill="#ffffff" opacity="1.00" d=" M 334.91 83.80 C 342.53 81.14 350.17 78.32 358.22 77.28 C 354.22 83.14 349.50 88.45 345.17 94.06 C 343.63 96.21 341.13 98.09 341.22 100.98 C 340.42 109.22 340.29 118.47 334.83 125.22 C 347.50 134.09 357.44 146.24 365.97 159.01 C 383.49 186.51 394.91 217.37 404.39 248.42 C 411.66 271.87 416.76 295.89 422.13 319.82 C 427.06 344.73 431.32 369.77 434.97 394.90 L 435.00 395.10 C 432.20 397.13 429.70 399.59 426.79 401.42 L 426.09 401.61 C 424.23 402.42 424.27 399.14 423.54 398.10 C 416.88 377.64 409.34 357.49 401.59 337.43 C 391.75 313.74 381.90 289.99 369.40 267.55 C 360.27 250.96 350.16 234.71 337.29 220.73 C 329.15 212.46 319.93 204.27 308.40 201.38 C 304.68 200.75 300.86 199.76 297.07 200.32 C 292.63 201.66 288.92 204.64 285.47 207.64 C 272.34 219.94 261.53 234.40 250.68 248.67 C 218.32 292.41 187.24 337.07 155.69 381.39 C 154.25 379.91 152.79 378.45 151.33 376.99 C 150.07 375.72 148.89 374.38 147.72 373.03 C 146.30 371.34 144.85 369.69 143.37 368.06 C 164.76 332.57 186.93 297.55 207.75 261.72 C 212.10 253.96 217.24 246.49 220.06 237.99 C 214.45 237.56 210.70 242.50 206.74 245.67 C 190.81 260.46 177.12 277.42 163.20 294.06 C 150.02 309.63 137.42 325.68 124.60 341.55 C 122.45 338.05 120.41 334.48 118.69 330.75 C 133.54 309.21 148.28 287.59 163.08 266.02 C 170.38 254.88 178.41 244.12 184.09 232.02 C 185.32 229.18 186.56 226.16 186.53 223.02 C 186.54 220.64 183.90 220.08 182.03 219.99 C 175.95 219.75 169.91 220.94 164.03 222.37 C 141.67 228.27 119.79 235.89 98.36 244.54 C 97.60 243.95 96.85 243.35 96.11 242.75 C 96.13 239.81 96.10 236.87 96.04 233.94 C 96.01 232.24 96.01 230.55 96.01 228.86 C 106.83 221.35 117.66 213.84 128.48 206.33 C 158.56 185.24 189.16 164.89 220.16 145.17 C 233.44 137.10 246.49 128.63 260.16 121.19 C 273.77 113.42 287.54 105.61 302.48 100.67 C 305.43 99.52 309.14 99.91 311.51 97.55 C 317.99 91.07 326.53 87.22 334.91 83.80 Z"/>
  </g>
</svg>