<?xml version="1.0" encoding="utf-8"?>
<svg viewBox="282.217 223.315 44 44" width="44" height="44" xmlns="http://www.w3.org/2000/svg">
  <g id="App-Favicons" stroke="none" stroke-width="1" fill="none" fill-rule="evenodd" transform="matrix(1, 0, 0, 1, 280.216888, 221.314606)">
    <g id="icon_48x48" fill-rule="nonzero">
      <g id="скрин512-copy" transform="translate(2.000000, 2.000000)" fill="#58E47B">
        <path d="M9.61554687,0 L34.3844531,0 C39.694973,0 44,4.30502697 44,9.61554687 L44,34.3844531 C44,39.694973 39.694973,44 34.3844531,44 L9.61554687,44 C4.30502697,44 0,39.694973 0,34.3844531 L0,9.61554687 C0,4.30502697 4.30502697,0 9.61554687,0 Z" id="Rectangle"/>
      </g>
      <g id="Group-15" transform="translate(7.875000, 9.875000)">
        <path d="M24.5445997,5.70532505 C25.3226648,6.48369866 25.3177448,7.74982965 24.5340569,8.53382583 C23.7496661,9.31782201 22.4834653,9.32274175 21.7054003,8.54436813 C20.9273352,7.76634593 20.9322552,6.50021494 21.7159431,5.71621876 C22.5003339,4.93222258 23.7665347,4.92730284 24.5445997,5.70532505" id="Fill-3" fill="#FFFFFF"/>
        <path d="M12.1254019,31.125 C5.49771449,31.125 0.125,25.7525074 0.125,19.125 C0.125,12.4974926 5.49771449,7.125 12.1254019,7.125 C18.7526874,7.125 24.125,12.4974926 24.125,19.125 C24.125,25.7525074 18.7526874,31.125 12.1254019,31.125 Z" id="Fill-5" fill="#FFFFFF"/>
        <path d="M8.84747947,8.125 C8.44873947,8.125 8.12587142,7.80211462 8.12587142,7.40335323 L8.12587142,3.14316308 C8.1213356,3.02976145 8.10484171,1.79182796 8.96334906,0.915954973 C9.49032904,0.378637408 10.2053395,0.107710593 11.0857013,0.125854854 C11.2535266,0.127916702 14.2591271,0.126679594 15.4029788,0.125854854 L15.4033912,0.125854854 C15.8017188,0.125854854 16.1245869,0.448327867 16.125,0.847089253 C16.1254116,1.2450259 15.8025435,1.56873602 15.4038035,1.56914839 C15.2359782,1.56914839 11.2786798,1.57121024 11.0654963,1.56914839 C10.580988,1.54935465 10.2420384,1.67760159 9.99957811,1.92089964 C9.55919113,2.36378457 9.56867513,3.11594669 9.56867513,3.12336934 L9.56908743,7.40335323 C9.56908743,7.80211462 9.24621935,8.125 8.84747947,8.125" id="Fill-7" stroke="#1A1A1A" stroke-width="0.2" fill="#1A1A1A"/>
        <path d="M28.4028055,8.125 C28.00405,8.125 27.6811693,7.80212067 27.6811693,7.40336675 L27.6811693,3.14325642 C27.6815817,3.11604054 27.691066,2.36389252 27.2506617,1.92101588 C27.0086043,1.67731003 26.645312,1.55525092 26.1855266,1.56927122 C25.9710976,1.57133303 22.0140567,1.56927122 21.8462247,1.56927122 C21.4474691,1.56885886 21.1245884,1.2451548 21.1249996,0.847225611 C21.1254132,0.448471696 21.4482939,0.126004725 21.8466371,0.126004725 L21.8470495,0.126004725 C22.990946,0.126829449 25.9970765,0.127654173 26.1653208,0.126004725 C27.0609745,0.106211356 27.7599307,0.379194904 28.2869314,0.91609004 C29.1454723,1.79194662 29.1289778,3.02985691 29.1240294,3.16799813 L29.1244418,7.40336675 C29.1244418,7.80212067 28.8015611,8.125 28.4028055,8.125" id="Fill-9" stroke="#1A1A1A" stroke-width="0.2" fill="#1A1A1A"/>
        <path d="M11.0248866,21.125 C10.1712939,21.125 9.47769833,20.8590206 8.96306866,20.3344845 C8.10452767,19.4586082 8.12102221,18.2206701 8.12597058,18.0825258 L8.12555821,13.8466495 C8.12555821,13.4478866 8.44843889,13.125 8.84719446,13.125 C9.24595004,13.125 9.56883073,13.4478866 9.56883073,13.8466495 L9.56883073,18.107268 C9.56841833,18.1344845 9.55852163,18.8862371 9.99933831,19.3295361 C10.2418081,19.5724227 10.5964408,19.7014948 11.0644735,19.6812887 C11.2780777,19.6784021 15.2355309,19.6808763 15.4037753,19.6812887 C15.8025309,19.681701 16.1254116,20.005 16.125,20.4033505 C16.1245868,20.801701 15.8017061,21.1245876 15.4033629,21.1245876 L15.4029505,21.1245876 C14.259054,21.1237629 11.2533359,21.1221134 11.0846793,21.1245876 C11.0644735,21.125 11.04468,21.125 11.0248866,21.125" id="Fill-11" stroke="#1A1A1A" stroke-width="0.2" fill="#1A1A1A"/>
        <path d="M26.4370325,21.0625 C26.4180903,21.0625 26.3995346,21.0625 26.3805924,21.0621134 C26.2236427,21.0601804 23.4055056,21.0617268 22.3331445,21.0621134 L22.3327579,21.0621134 C21.9593258,21.0621134 21.6566369,20.7597938 21.6562492,20.3859536 C21.6558638,20.0125 21.9585526,19.7094072 22.3323713,19.7090207 C22.4904808,19.7090207 26.199675,19.7070876 26.3995346,19.7090207 C26.8572403,19.7225515 27.1715264,19.6069588 27.3988329,19.3792526 C27.8120824,18.9636598 27.8028045,18.2588917 27.8028045,18.2515464 L27.802418,14.2390464 C27.802418,13.8652062 28.1051068,13.5625 28.4789255,13.5625 C28.8527442,13.5625 29.1554331,13.8652062 29.1554331,14.2390464 L29.1554331,18.2333762 C29.1596854,18.3396907 29.1751484,19.5002577 28.3702977,20.3213917 C27.8878512,20.8131443 27.2376308,21.0625 26.4370325,21.0625" id="Fill-13" stroke="#1A1A1A" stroke-width="0.2" fill="#1A1A1A"/>
      </g>
    </g>
  </g>
</svg>