<?xml version="1.0" encoding="utf-8"?>
<svg viewBox="55.007 267.189 60 60" width="60" height="60" xmlns="http://www.w3.org/2000/svg">
  <rect id="Rectangle" fill="#75C8FC" fill-rule="nonzero" x="2" y="2" width="60" height="60" rx="13.1764706" transform="matrix(1, 0, 0, 1, 53.006695, 265.188751)"/>
  <circle id="Oval" fill="#FFFFFF" fill-rule="nonzero" cx="21.1764706" cy="24.9411765" r="10.8235294" transform="matrix(1, 0, 0, 1, 53.006695, 265.188751)"/>
  <circle id="Oval-2" fill="#FFFFFF" fill-rule="nonzero" cx="38.9411765" cy="26" r="1.76470588" transform="matrix(1, 0, 0, 1, 53.006695, 265.188751)"/>
  <path d="M42.8194093,45.3928558 L18.5922311,45.3928558 C17.030632,45.3928558 15.7647059,44.1229874 15.7647059,42.5565253 L15.7647059,21.65986 C15.7647059,20.0933979 17.030632,18.8235294 18.5922311,18.8235294 L42.8194093,18.8235294 C44.3810084,18.8235294 45.6469975,20.0933979 45.6469975,21.65986 L45.6469975,42.5565253 C45.6519558,43.3120378 45.3562748,44.0383368 44.8254657,44.5743486 C44.2946567,45.1103604 43.5725931,45.4117647 42.8194093,45.4117647 L42.8194093,45.3928558 Z M18.5922311,20.4922372 C17.9493728,20.4922372 17.4282332,21.0149997 17.4282332,21.65986 L17.4282332,42.5565253 C17.4282332,43.2037194 17.9470926,43.7305634 18.5922311,43.7383323 L42.8194093,43.7383323 C43.1307833,43.7389947 43.4293884,43.6142372 43.6482305,43.3920473 C43.8670727,43.1698574 43.9878291,42.8688382 43.9835245,42.5565253 L43.9835245,21.65986 C43.9757761,21.0181972 43.4590801,20.4998921 42.8194093,20.4922372 L18.5922311,20.4922372 Z" id="Shape" fill="#1D1D1D" fill-rule="nonzero" transform="matrix(1, 0, 0, 1, 53.006695, 265.188751)"/>
  <circle id="Oval-3" fill="#FFFFFF" fill-rule="nonzero" cx="31.2941176" cy="44.2352941" r="4.70588235" transform="matrix(1, 0, 0, 1, 53.006695, 265.188751)"/>
  <path d="M52.1421048,24.3277212 C51.4361447,24.0868139 50.6572477,24.3273866 50.203545,24.9264711 L48.3440153,27.0763134 C47.5866233,27.9237339 47.2125186,29.0533746 47.3119762,30.1926418 L47.3119762,33.8039996 C47.2055213,34.9475338 47.5784074,36.0837228 48.3393664,36.9344717 L50.1988962,39.084314 C50.6557828,39.6788642 51.4344677,39.9136901 52.137456,39.6689202 C53.1083545,39.3209181 53.7253712,38.3522768 53.6390263,37.311637 L53.6390263,26.6802898 C53.7221402,25.6430097 53.1083094,24.6783104 52.1421048,24.3277212 L52.1421048,24.3277212 Z M51.9840448,37.2597768 C51.9561519,37.6982315 51.900366,37.9151015 51.6632759,37.9669618 C51.4261859,38.018822 51.1240123,37.6935169 51.0821729,37.6416567 L49.5620073,35.8241913 C48.9716066,35.1594375 48.9483625,34.6455497 48.9530113,33.8346443 L48.9530113,30.1667116 C48.9530113,29.3652354 48.9530113,28.8419185 49.5620073,28.1771646 L51.0821729,26.3337692 C51.1240123,26.2819089 51.4168882,25.9518893 51.6632759,26.0084641 C51.9096636,26.0650389 51.9561519,26.2819089 51.9840448,26.715649 L51.9840448,37.2597768 Z" id="Shape-2" fill="#1D1D1D" fill-rule="nonzero" transform="matrix(1, 0, 0, 1, 53.006695, 265.188751)"/>
</svg>