<?xml version="1.0" encoding="utf-8"?>
<svg viewBox="135.709 92.108 41.8 30" width="41.8" height="30" xmlns="http://www.w3.org/2000/svg">
  <path class="st1" d="M 38 3.337 L 2.178 3.337 L 2.178 27.337 L 38 27.337 L 38 3.337 Z" style="fill: rgb(255, 255, 255);" transform="matrix(1, 0, 0, 1, 135.709351, 92.10849)"/>
  <path class="st1" d="M40 3H21v24h19V3zm-9 19h-3V8h3v14z" style="fill: rgb(93, 134, 160);" transform="matrix(1, 0, 0, 1, 135.709351, 92.10849)"/>
  <path class="st0" d="M2.6 3C8.7 4.5 14.8 5.3 21 5.3c6.1 0 12.3-.8 18.4-2.3l-1.6-.9c.5 1.2.8 3.2 1.1 5.5.2 2.3.4 4.8.4 7.4 0 2.6-.1 5.2-.4 7.4-.2 2.3-.6 4.2-1.1 5.5l1.6-.9c-6.1-1.5-12.3-2.3-18.4-2.3h-.1c-6.1 0-12.3.8-18.4 2.3l1.7.9c-.4-1.2-.8-3.2-1.1-5.5-.2-2.3-.4-4.8-.4-7.4 0-2.6.1-5.2.4-7.4.2-2.3.6-4.2 1.1-5.5L2.6 3l.3-1.4-1.3-.4C1 2.8.7 4.9.4 7.3.1 9.7 0 12.3 0 15s.1 5.3.4 7.7c.3 2.4.6 4.5 1.2 6.1L2 30l1.2-.3c5.9-1.5 11.8-2.2 17.7-2.2 5.9 0 11.8.7 17.7 2.2l1.2.3.4-1.2c.6-1.6.9-3.7 1.2-6.1.3-2.4.4-5.1.4-7.7 0-2.7-.1-5.3-.4-7.7-.3-2.4-.6-4.5-1.2-6.1L39.9 0l-1.2.3C32.8 1.8 26.9 2.5 21 2.5h-.1C15 2.5 9.1 1.8 3.3.3L2 0l-.4 1.2 1.3.5" style="fill: rgb(17, 17, 17);" transform="matrix(1, 0, 0, 1, 135.709351, 92.10849)"/>
  <path class="st0" d="M11 22v-7l2 7h3V8h-3v6l-2-6H8v14z" style="fill: rgb(17, 17, 17);" transform="matrix(1, 0, 0, 1, 135.709351, 92.10849)"/>
</svg>