<?xml version="1.0" encoding="utf-8"?>
<svg viewBox="-2073.677 -292.396 861.839 786.755" width="861.839" height="786.755" xmlns="http://www.w3.org/2000/svg">
  <linearGradient id="SVGID_00000083796956185287615240000010885015769944861357_" gradientUnits="userSpaceOnUse" x1="536.4819" y1="1113.179" x2="292.8189" y2="64.084" gradientTransform="matrix(1 0 0 -1 0 788)">
    <stop offset="0.4799" style="stop-color:#24ECC6;stop-opacity:0"/>
    <stop offset="0.9944" style="stop-color:#24ECC6"/>
  </linearGradient>
  <linearGradient id="SVGID_00000005978595599017039650000002259067875620926859_" gradientUnits="userSpaceOnUse" x1="759.6771" y1="79.3122" x2="219.4247" y2="1003.199" gradientTransform="matrix(1 0 0 -1 0 788)">
    <stop offset="0.066" style="stop-color:#ABFFEF"/>
    <stop offset="0.4499" style="stop-color:#CAC9FF"/>
    <stop offset="1" style="stop-color:#6D4AFF"/>
  </linearGradient>
  <path class="st3" d="M346.1,740.3c32.8,59.3,116.9,62.6,154,5.9l346.7-528.4c36.8-56,1.6-131.2-65-138.8L100.4,0.9 C27.7-7.5-24,69.8,11.3,133.8L346.1,740.3z" style="clip-rule: evenodd; fill: rgb(109, 74, 255); fill-rule: evenodd;" transform="matrix(1, 0, 0, 1, -2073.608398, -292.580353)"/>
  <path style="fill-rule:evenodd;clip-rule:evenodd;fill:url(#SVGID_00000083796956185287615240000010885015769944861357_);" d=" M346.1,740.3c32.8,59.3,116.9,62.6,154,5.9l346.7-528.4c36.8-56,1.6-131.2-65-138.8L100.4,0.8C27.8-7.5-24,69.7,11.4,133.7 L346.1,740.3z" transform="matrix(1, 0, 0, 1, -2073.608398, -292.580353)"/>
  <path style="fill:url(#SVGID_00000005978595599017039650000002259067875620926859_);" d="M396.4,638.7L365.6,685 c-12.5,18.7-40.4,17.6-51.2-2.1l31.7,57.5c5.7,10.2,12.8,18.8,21.1,25.7l0,0c39.3,33,102.2,27.1,133-19.8l346.7-528.4 c36.8-56,1.6-131.2-65-138.8L100.4,0.9C27.7-7.5-24,69.8,11.3,133.8l2.7,4.9l580.1,67.1c37,4.3,56.5,46,36,77.1L396.4,638.7z" transform="matrix(1, 0, 0, 1, -2073.608398, -292.580353)"/>
</svg>