<?xml version="1.0" encoding="utf-8"?>
<svg viewBox="65.545 83.926 267.729 256.014" width="267.729" height="256.014" xmlns="http://www.w3.org/2000/svg">
  <circle cy="128" cx="128" r="128" fill="#404552" transform="matrix(1, 0, 0, 1, 77.273819, 83.93988)"/>
  <path id="budgie" fill="#fff" d="m172 150c-17.556 0-32.315 12.472-37 29-0.98896 3.4889-1.6694 4.6841-3 7-1.7157 2.9862-5.1986 7.2988-10 10-3.9063 2.1976-7.2726 4.0674-12.303 3.3096-1.3094-0.19726-3.6295-0.56196-5.951-1.8976-3.7-2.13-4.92-4-7.75-9.41 0.40401 5.7738-0.34048 7.8803 2.5 18 5.6541 20.144 27.381 36 53 36 18.991 0 36.592-7.9151 46.496-19.998 3.6222-4.4191 6.3498-7.9058 9-14 2.4112-5.5448 3.0022-12.653 3.004-19.002 0.006-21.556-17.013-39-38-39z" transform="matrix(1, 0, 0, 1, 77.273819, 83.93988)"/>
  <path fill="#fff" d="m172 150c-17.556 0-32.315 12.472-37 29-0.98896 3.4889-1.6694 4.6841-3 7-1.7157 2.9862-5.1986 7.2988-10 10-3.9063 2.1976-7.2726 4.0674-12.303 3.3096-1.3094-0.19726-3.6295-0.56196-5.951-1.8976-3.7-2.13-4.92-4-7.75-9.41 0.40401 5.7738-0.34048 7.8803 2.5 18 5.6541 20.144 27.381 36 53 36 18.991 0 36.592-7.9151 46.496-19.998 3.6222-4.4191 6.3498-7.9058 9-14 2.4112-5.5448 3.0022-12.653 3.004-19.002 0.006-21.556-17.013-39-38-39z" transform="matrix(-0.5, 0.86603, -0.86603, -0.5, 380.12381, 165.088882)"/>
  <path fill="#fff" d="m172 150c-17.556 0-32.315 12.472-37 29-0.98896 3.4889-1.6694 4.6841-3 7-1.7157 2.9862-5.1986 7.2988-10 10-3.9063 2.1976-7.2726 4.0674-12.303 3.3096-1.3094-0.19726-3.6295-0.56196-5.951-1.8976-3.7-2.13-4.92-4-7.75-9.41 0.40401 5.7738-0.34048 7.8803 2.5 18 5.6541 20.144 27.381 36 53 36 18.991 0 36.592-7.9151 46.496-19.998 3.6222-4.4191 6.3498-7.9058 9-14 2.4112-5.5448 3.0022-12.653 3.004-19.002 0.006-21.556-17.013-39-38-39z" transform="matrix(-0.5, -0.86603, 0.86603, -0.5, 158.422821, 386.789886)"/>
</svg>