<?xml version="1.0" encoding="utf-8"?>
<svg viewBox="292.45 209.255 30.999 31.003" width="30.999" height="31.003" xmlns="http://www.w3.org/2000/svg">
  <g transform="matrix(1, 0, 0, 1, 290.450104, 207.254532)">
    <linearGradient id="SVGID_1_" gradientUnits="userSpaceOnUse" x1="39.8843" y1="1292.5176" x2="39.8843" y2="1272.2539" gradientTransform="matrix(1.53 0 0 1.53 -43.5222 -1944.5488)">
      <stop offset="0" style="stop-color:#DD0000"/>
      <stop offset="1" style="stop-color:#FA1C1C"/>
    </linearGradient>
    <path fill="url(#SVGID_1_)" d="M31.305,33.003H3.693C2.756,33.003,2,32.242,2,31.305V3.701c0-0.938,0.758-1.698,1.693-1.698h6.268 l4.493,12.94c0.209,0.6,0.411,0.896,0.603,0.896c0.21,0,0.393-0.219,0.552-0.658l3.585-10.133h5.929 c-0.313,1.393-0.98,3.261-0.235,5.443c0.579,1.666,1.339,3.251,1.77,4.59c0.575,1.756,0.703,3.735,0.055,5.453 c-1.037,2.747-3.384,4.97-4.852,6.137l-0.422-0.159c1.171-1.187,3.327-3.061,4.168-5.605c0.475-1.42,0.515-3.125,0.034-4.572 c-0.515-1.675-1.816-3.344-3.256-4.007l-5.65,14.979c-0.449,1.188-1.571,2.002-2.901,2.406c-1.302,0.412-2.803,0.393-3.965-0.049 c-0.74-0.278-1.337-0.775-1.663-1.354c-0.352-0.586-0.423-1.273-0.165-1.965c0.409-1.08,1.558-1.887,2.86-2.3 c1.313-0.438,2.78-0.489,3.837-0.091c0.925,0.35,0.969,0.427,1.25,0.661L22.59,6.743h-1.429l-6.188,16.538L7.883,3.693H4.541 c-0.468,0-0.848,0.381-0.848,0.848v25.917c0,0.468,0.379,0.849,0.848,0.849h25.918c0.468,0,0.848-0.381,0.848-0.849V4.542 c0-0.468-0.379-0.849-0.848-0.849H11.994L11.486,2h19.82c0.936,0,1.693,0.761,1.693,1.698v27.604 C32.998,32.242,32.239,33.003,31.305,33.003z"/>
  </g>
</svg>