<?xml version="1.0" encoding="utf-8"?>
<svg viewBox="38.79 146.201 79.376 79.375" width="79.376" height="79.375" xmlns="http://www.w3.org/2000/svg">
  <g stroke-width=".265" transform="matrix(1, 0, 0, 1, 197.568024, 67.897438)">
    <path d="m-79.4709 116.816s1.8361-38.5128-40.4918-38.5128c-37.4332 0-38.6027 36.9438-38.6027 36.9438s-5.50624 42.4312 39.4652 42.4312c43.1324 0 39.6293-40.8622 39.6293-40.8622zm-52.3346-13.4575c7.942-4.85881 18.0885-1.88916 21.8903 5.4176.72054 1.38478.81211 3.51658.35578 4.96941-1.57548 5.01544-5.29537 7.82823-10.4013 9.02308 1.50527-1.2887 2.70352-2.75007 3.08478-4.76911a6.98553 6.98553 0 0 0 -1.20187-5.54461 7.08025 7.08025 0 0 0 -8.15208-2.48422c-3.14351 1.19356-4.86542 4.06241-4.55506 7.58904.28834 3.27581 2.77389 5.39882 7.42447 6.20527-.69506.36788-1.23039.63881-1.75416.93059a16.9116 16.9116 0 0 0 -5.4356 4.72758c-.47199.63722-.7965.68855-1.51527.24901-9.34984-5.71764-9.95071-20.067.25989-26.3136zm-6.99797 35.3298c-1.50201.38126-2.95751.94567-4.49289 1.44925.75102-5.06703 6.6847-9.73349 11.7025-9.20115a12.9331 12.9331 0 0 0 -2.44528 6.85086c-1.6674.30708-3.23876.51366-4.76435.90091zm31.959-49.4718c1.48429.05454 2.97127.03199 4.45665.06715a7.68668 7.68668 0 0 1 1.10262.15364 10.7439 10.7439 0 0 1 -1.1207 1.43753c-.53101.4948-1.13096.97859-1.89603.22648-.18401-.1809-.61875-.13938-.93892-.1436-1.47699-.01941-2.95593-.06661-4.43072-.01093a27.5272 27.5272 0 0 0 -3.81661.38973c-.23645.04246-.58999.82854-.4813 1.11839.25646.68403.63058 1.43835 1.18477 1.87584 2.04796 1.6166 4.22593 3.06811 6.28333 4.6736 1.99919 1.56014 3.86 3.26972 4.99401 5.62319 1.47751 3.06652 1.52056 6.282.88339 9.51177-1.0637 5.39168-3.79227 9.85864-8.21055 13.1032-1.78033 1.30731-3.98463 2.04923-6.02377 2.98847-1.79334.82616-3.63934 1.53763-5.43692 2.35501-3.24088 1.47359-5.06227 4.99136-4.52649 8.6487.49172 3.35624 3.43614 6.15711 6.80905 6.73523 4.04601.69363 8.22087-1.93577 9.21067-6.04838 1.11303-4.62438-1.39959-8.75321-6.10261-10.0047-.20709-.0551-.41497-.10729-.84699-.21878 1.25807-.56211 2.34458-.96258 3.34778-1.51458q2.62501-1.44447 5.15435-3.05911c.49588-.31724.76379-.3174 1.1867.0482 3.23454 2.79664 5.16414 6.27539 5.70522 10.5407.89548 7.06014-2.44663 13.5461-8.7503 16.8704-9.75255 5.14323-21.6866-.71078-23.8406-11.5231-1.84515-9.26121 4.69106-17.662 12.5576-19.2839 3.38323-.69755 6.477-2.10598 8.88207-4.71143 1.55183-1.68119 2.30409-3.12368 2.56042-3.77455a10.4682 10.4682 0 0 0 .71996-3.82826 8.96064 8.96064 0 0 0 -.7846-3.2803c-.82126-1.87193-3.96742-4.84982-4.74636-5.47794l-7.40833-5.79993c-.2613-.21499-.55547-.19941-1.19271-.15622-.757.05131-2.69214.15845-3.52717-.06036.67549-.5112 2.51704-1.25548 3.30783-1.85394-2.40067-1.62182-5.14086-1.03606-7.65731-1.52032.58187-1.08371 3.46101-2.74902 5.09852-2.93449a24.2181 24.2181 0 0 0 -.44651-2.72018c-.1-.36822-.51096-.72517-.86953-.93544-.86942-.50977-1.79107-.93046-2.79109-1.4374a5.8039 5.8039 0 0 1 2.99826-.9275 11.1961 11.1961 0 0 1 3.00249.29252c1.78388.40759 3.20781.14153 4.62704-1.07103-1.11707-.44985-2.23401-.86082-3.31735-1.34692a32.5543 32.5543 0 0 1 -3.11653-1.62938c2.81041.39039 5.52874 1.44423 8.40238 1.05923q.0367-.19592.0734-.39182c-2.14826-.50004-4.29657-1.00007-6.67517-1.55374 3.97933-.36431 7.68403-.42439 11.1921 1.28431.98716.48083 2.02004.87881 2.96624 1.42801.46151.26786.77221.79581 1.15083 1.20634.30073.3261.54227.76298.91176.95949 1.40229.7457 2.94587.77499 4.51855.73763.0117-.17911.0228-.34697.0346-.52739 1.58276.49459 3.36418 2.31984 3.36127 3.65284-2.56411 0-5.12604-.0098-7.68774.01426-.27379.0026-.54573.20257-.81851.31099.25925.15099.51403.42317.77848.43291z" fill="#88171a"/>
    <path d="m-110.152 85.4225a.39174.39174 0 0 0 -.0501.62669.59071.59071 0 0 0 .8129.21746c.24681-.12449.4889-.25701.78714-.41447-.24021-.20505-.43291-.37433-.63122-.53774-.34872-.28734-.63791-.10686-.91873.10804z"/>
  </g>
</svg>