<?xml version="1.0" encoding="utf-8"?>
<svg viewBox="0 0 512 681.17" width="512" height="681.17" xmlns="http://www.w3.org/2000/svg">
  <g>
    <g>
      <path d="M437.02,74.98C388.667,26.628,324.38,0,256,0S123.333,26.628,74.98,74.98C26.628,123.333,0,187.62,0,256 s26.628,132.667,74.98,181.02C123.333,485.372,187.62,512,256,512s132.667-26.628,181.02-74.98 C485.372,388.667,512,324.38,512,256S485.372,123.333,437.02,74.98z M256,491.602c-129.911,0-235.602-105.69-235.602-235.602 S126.089,20.398,256,20.398S491.602,126.089,491.602,256S385.911,491.602,256,491.602z"/>
    </g>
  </g>
  <g>
    <g>
      <path d="M256,225.402c-16.872,0-30.598,13.726-30.598,30.598s13.726,30.598,30.598,30.598s30.598-13.726,30.598-30.598 S272.872,225.402,256,225.402z M256,266.199c-5.624,0-10.199-4.575-10.199-10.199s4.575-10.199,10.199-10.199 s10.199,4.575,10.199,10.199S261.624,266.199,256,266.199z"/>
    </g>
  </g>
  <g>
    <g>
      <path d="M402.941,387.497l-7.138-7.139c-3.983-3.983-10.441-3.983-14.425,0c-3.983,3.983-3.983,10.441,0,14.425l7.139,7.139 c1.992,1.992,4.602,2.987,7.212,2.987c2.61,0,5.221-0.995,7.212-2.987C406.924,397.939,406.924,391.481,402.941,387.497z"/>
    </g>
  </g>
  <g>
    <g>
      <path d="M372.345,356.902l-51.481-51.48c10.484-13.727,16.729-30.855,16.729-49.421c0-44.991-36.603-81.594-81.594-81.594 c-33.43,0-62.214,20.217-74.807,49.059l-65.116-19.069c-5.408-1.584-11.071,1.515-12.655,6.921 c-1.583,5.406,1.516,11.071,6.922,12.654l65.103,19.066c-0.676,4.224-1.04,8.55-1.04,12.962c0,44.991,36.603,81.594,81.594,81.594 c19.087,0,36.65-6.605,50.563-17.626l51.359,51.359c1.992,1.991,4.602,2.987,7.212,2.987s5.221-0.996,7.212-2.987 C376.328,367.344,376.328,360.886,372.345,356.902z M256,317.195c-33.743,0-61.195-27.452-61.195-61.195 s27.452-61.195,61.195-61.195s61.195,27.452,61.195,61.195S289.743,317.195,256,317.195z"/>
    </g>
  </g>
  <g>
    <g>
      <path d="M185.699,170.254l-62.216-62.216c-3.983-3.983-10.441-3.983-14.425,0c-3.983,3.983-3.983,10.441,0,14.425l62.217,62.216 c1.992,1.992,4.602,2.987,7.212,2.987s5.221-0.995,7.212-2.987C189.682,180.696,189.682,174.238,185.699,170.254z"/>
    </g>
  </g>
  <g>
    <g>
      <path d="M401.656,288.029l-41.817-12.246c-5.41-1.583-11.072,1.516-12.655,6.922s1.516,11.071,6.922,12.655l41.817,12.246 c0.957,0.279,1.922,0.413,2.871,0.413c4.412,0,8.481-2.886,9.784-7.335C410.16,295.277,407.061,289.611,401.656,288.029z"/>
    </g>
  </g>
  <text style="font-family: &quot;Segoe UI&quot;, sans-serif; font-size: 125px; font-weight: 700; text-anchor: middle;"><tspan x="250" y="650">Full</tspan></text>
</svg>