<?xml version="1.0" standalone="no"?>
<!DOCTYPE svg PUBLIC "-//W3C//DTD SVG 20010904//EN"
 "http://www.w3.org/TR/2001/REC-SVG-20010904/DTD/svg10.dtd">
<svg version="1.0" xmlns="http://www.w3.org/2000/svg"
 width="512.000000pt" height="512.000000pt" viewBox="0 0 512.000000 512.000000"
 preserveAspectRatio="xMidYMid meet">

<g transform="translate(0.000000,512.000000) scale(0.100000,-0.100000)"
fill="#000000" stroke="none">
<path d="M2560 4551 l0 -551 135 0 135 0 0 -790 0 -790 527 0 528 0 -660 -660
-660 -660 -3 66 -3 67 -426 521 -426 521 202 3 201 2 0 450 0 450 225 0 225 0
0 225 0 225 -209 0 -209 0 -4 148 c-3 127 -6 154 -26 197 -30 65 -85 122 -147
151 l-50 24 -691 0 -691 0 -62 -31 c-41 -20 -73 -46 -96 -76 -70 -91 -66 10
-63 -1504 l3 -1364 22 -41 c36 -67 70 -101 135 -133 l61 -31 1014 0 1013 0 0
-486 0 -486 113 7 c159 10 304 29 442 60 963 215 1715 967 1930 1930 45 204
58 322 58 555 0 233 -13 351 -58 555 -215 963 -967 1715 -1930 1930 -138 31
-283 50 -442 60 l-113 7 0 -551z"/>
</g>
</svg>
